
<svg xmlns="http://www.w3.org/2000/svg" width="100" height="100" viewBox="0 0 24 24" fill="#8B5CF6"><path d="M7.125 0h9.75c3.933 0 7.125 3.192 7.125 7.125v9.75c0 3.933-3.192 7.125-7.125 7.125h-9.75C3.192 24 0 20.808 0 16.875v-9.75C0 3.192 3.192 0 7.125 0zM6.625 6.95H4.533v9.7H6.625zm6.393 0c-2.641 0-3.354 2.596-3.354 4. 932 0 2.625.713 4.904 3.354 4.904 2.633 0 3.342-2.25 3.342-4.867C16.36 9.555 15.65 6.949 13.018 6.949zm.004 1.311c1.41 0 1.496 1.93 1.496 3.35l-.002.234c0 1.348 0 3.648-1.494 3.648-1.488 0-1.488-2.33-1.488-3.64 0-1.354.047-3.592 1.488-3.592zM8.893 11.89H6.748v1.394h2.145z"/></svg>
