
<svg xmlns="http://www.w3.org/2000/svg" width="100" height="100" viewBox="0 0 24 24" fill="#8B5CF6"><path d="M12.51 13.214c.046-.8.384-1.152.865-1.152.48 0 .818.352.863 1.152zm0 1.246c.059.867.409 1.245.865 1.245.456 0 .805-.378.863-1.245zm9.57-6.84C22.353 5.55 17.539.334 12.115.334 8.676.334 5.597 1.55 3.5 3.558c-2.16 2.057-3.5 4.9-3.5 8.04 0 3.148 1.34 5.992 3.5 8.04 2.096 2.01 5.175 3.225 8.615 3.225 5.424 0 10.238-5.215 10.965-7.286.612-1.365.7-7.217 0-7.956zm-4.52 7.793c-.585 0-1.111-.3-1.444-.773l.178.773H14.51c.203-.378.356-.8.433-1.245h.026c.077.445.229.867.432 1.245h-1.784l.178-.773c-.33.472-.856.773-1.444.773-1.026 0-1.865-1.009-1.865-2.252 0-1.245.84-2.254 1.865-2.254.585 0 1.111.301 1.444.774l-.178-.774h1.784l-.178.774c.33-.473.856-.774 1.444-.774 1.026 0 1.865 1.01 1.865 2.254 0 1.243-.839 2.252-1.865 2.252zm-.6-12.221c0 .151-.038.29-.089.42.178.21.293.48.293.78 0 .548-.358.995-.806 1.02v.045c.627.042 1.12.635 1.12 1.366 0 .762-.627 1.38-1.4 1.38H6.31V3.558h9.23c.95 0 1.72.86 1.72 1.914zm-9.55 2.322V5.1h1.3v1.425zm0 3.033V8.191h1.863v1.366h-1.863z"/></svg>
