
<svg xmlns="http://www.w3.org/2000/svg" width="100" height="100" viewBox="0 0 24 24" fill="#38BDF8"><path d="M7.04 0h9.91c3.882 0 7.05 3.168 7.05 7.04v9.91c0 3.882-3.168 7.05-7.05 7.05H7.04C3.167 24 0 20.832 0 16.95V7.05C0 3.167 3.168 0 7.04 0zm6.577 7.853c-.83 0-1.004.175-1.004.873v.675h2.008v1.776H12.613v5.015h-1.947V11.177h-1.58V9.401h1.58v-.7c0-1.962.944-2.942 2.942-2.942h1.54v2.093h-1.533zm2.417 3.849l1.924-.37c.418-.08.478.123.275.418 0 0-.418.623-1.197 1.39-.078.08-.155.08-.215 0-.328-.369-.604-.67-.804-.942-.177-.204-.165-.408.017-.496z"/></svg>
