
<svg xmlns="http://www.w3.org/2000/svg" width="100" height="100" viewBox="0 0 24 24" fill="#8B5CF6"><path d="M7.08 0h9.83c3.9 0 7.09 3.189 7.09 7.08v9.83c0 3.9-3.189 7.09-7.09 7.09H7.08C3.189 24 0 20.819 0 16.91V7.08C0 3.189 3.189 0 7.08 0zm5.73 17.2v-2.11h-.03c-.408.697-1.214 1.094-2.037 1.08-1.917 0-2.444-1.054-2.444-2.76V9.84h1.82v3.17c0 1.097.033 1.909 1.12 1.909 1.084 0 1.29-.863 1.29-1.75v-3.33h1.835v7.36zM10.643 6.722h1.82v1.8h-1.82zm8.329 4.36c1.036 0 1.716.3 2.21.8.51.51.775 1.245.775 2.177 0 .958-.272 1.72-.817 2.273-.544.555-1.302.833-2.272.833-.958 0-1.705-.275-2.238-.825-.534-.55-.8-1.32-.8-2.31 0-.908.267-1.634.801-2.175.534-.542 1.275-.774 2.341-.774zm0 1.422c-.7 0-1.188.49-1.188 1.578 0 1.087.48 1.56 1.188 1.56.698 0 1.182-.482 1.182-1.56s-.484-1.578-1.182-1.578z"/></svg>
